HIERARCHY
ROOT Hips
{
 OFFSET 0.000000 0.000000 0.000000
 CHANNELS 6 Xposition Yposition Zposition Yrotation Xrotation Zrotation
 JOINT Chest
 {
  OFFSET 0.000000 9.585900 0.002600
  CHANNELS 3 Yrotation Xrotation Zrotation
  JOINT Chest2
  {
   OFFSET 0.000000 9.601200 -0.005300
   CHANNELS 3 Yrotation Xrotation Zrotation
   JOINT Chest3
   {
    OFFSET 0.000000 9.561800 0.000000
    CHANNELS 3 Yrotation Xrotation Zrotation
    JOINT Chest4
    {
     OFFSET 0.000000 9.552100 0.000000
     CHANNELS 3 Yrotation Xrotation Zrotation
     JOINT Neck
     {
      OFFSET 0.000000 14.453000 0.000000
      CHANNELS 3 Yrotation Xrotation Zrotation
      JOINT Head
      {
       OFFSET 0.000000 8.936500 -0.011300
       CHANNELS 3 Yrotation Xrotation Zrotation
       End Site
       {
        OFFSET 0.000000 17.073600 -0.006000
       }
      }
     }
     JOINT RightCollar
     {
      OFFSET -2.921100 9.558500 0.000000
      CHANNELS 3 Yrotation Xrotation Zrotation
      JOINT RightShoulder
      {
       OFFSET -13.519700 0.000000 0.000000
       CHANNELS 3 Yrotation Xrotation Zrotation
       JOINT RightElbow
       {
        OFFSET 0.000000 -29.696600 0.000000
        CHANNELS 3 Yrotation Xrotation Zrotation
        JOINT RightWrist
        {
         OFFSET 0.000000 -24.004700 0.000000
         CHANNELS 3 Yrotation Xrotation Zrotation
         End Site
         {
          OFFSET 0.000000 -17.728500 0.000000
         }
        }
       }
      }
     }
     JOINT LeftCollar
     {
      OFFSET 2.921100 9.558500 0.000000
      CHANNELS 3 Yrotation Xrotation Zrotation
      JOINT LeftShoulder
      {
       OFFSET 13.519700 0.000000 0.000000
       CHANNELS 3 Yrotation Xrotation Zrotation
       JOINT LeftElbow
       {
        OFFSET 0.000000 -29.696600 0.000000
        CHANNELS 3 Yrotation Xrotation Zrotation
        JOINT LeftWrist
        {
         OFFSET 0.000000 -24.004700 0.000000
         CHANNELS 3 Yrotation Xrotation Zrotation
         End Site
         {
          OFFSET 0.000000 -17.728500 0.000000
         }
        }
       }
      }
     }
    }
   }
  }
 }
 JOINT RightHip
 {
  OFFSET -7.771700 -0.012900 -0.001300
  CHANNELS 3 Yrotation Xrotation Zrotation
  JOINT RightKnee
  {
   OFFSET 0.000000 -40.869800 0.001200
   CHANNELS 3 Yrotation Xrotation Zrotation
   JOINT RightAnkle
   {
    OFFSET 0.000000 -39.717900 0.002100
    CHANNELS 3 Yrotation Xrotation Zrotation
    JOINT RightToe
    {
     OFFSET 0.000000 -4.965400 11.033500
     CHANNELS 3 Yrotation Xrotation Zrotation
     End Site
     {
      OFFSET 0.000000 -1.423100 5.872300
     }
    }
   }
  }
 }
 JOINT LeftHip
 {
  OFFSET 7.771700 -0.012900 -0.001300
  CHANNELS 3 Yrotation Xrotation Zrotation
  JOINT LeftKnee
  {
   OFFSET 0.000000 -40.869800 0.001200
   CHANNELS 3 Yrotation Xrotation Zrotation
   JOINT LeftAnkle
   {
    OFFSET 0.000000 -39.717900 0.002100
    CHANNELS 3 Yrotation Xrotation Zrotation
    JOINT LeftToe
    {
     OFFSET 0.000000 -4.965400 11.033500
     CHANNELS 3 Yrotation Xrotation Zrotation
     End Site
     {
      OFFSET 0.000000 -1.423100 5.872300
     }
    }
   }
  }
 }
}
MOTION
Frames: 12
Frame Time: 0.008333
-210.079250 48.881143 6.803088 175.972844 -36.480096 -3.786880 1.526333 19.811038 3.037552 0.154223 2.462306 0.285939 0.258575 4.051839 0.474903 1.361922 17.036175 2.165628 5.660309 17.476453 -1.240585 10.850927 -3.031999 -4.170617 -2.434930 -3.570829 -2.622630 6.356521 -10.362637 -13.890815 -43.085078 -48.188146 96.806264 2.444300 1.012649 -17.823543 -0.521052 -3.489344 3.980463 -9.185862 -6.133075 12.444106 75.775065 -68.330283 -114.354649 3.170000 6.005133 7.628005 -2.174838 -48.526057 -6.929647 -146.861322 81.887347 -134.890848 -29.109436 -2.221489 -2.878768 -0.186987 -11.910201 0.600126 -15.381011 -50.258588 17.701968 -73.502385 68.573396 -77.225834 30.355395 8.510920 12.541391 0.151743 -0.442717 0.045631
-210.079035 48.883285 6.802783 175.968773 -36.457817 -3.790846 1.524826 19.824542 3.045423 0.159857 2.434434 0.283352 0.255202 4.081124 0.480847 1.365723 17.089107 2.192135 5.654963 17.433460 -1.253910 10.847784 -3.029527 -4.152561 -2.448538 -3.612656 -2.652759 6.331827 -10.386104 -13.954239 -43.027209 -48.203846 96.820650 2.492526 1.028912 -17.872714 -0.533507 -3.538193 3.952849 -9.211022 -6.132851 12.513490 75.886013 -68.428559 -114.444973 3.157613 5.972316 7.564997 -2.162095 -48.544490 -6.924310 -146.877084 81.891877 -134.896564 -29.134875 -2.237504 -2.877902 -0.187957 -11.893147 0.606627 -15.419670 -50.277040 17.724359 -73.510846 68.575074 -77.236554 30.372866 8.508161 12.539113 0.125068 -0.450330 0.041792
-210.078154 48.886211 6.801564 175.971318 -36.446306 -3.797789 1.518930 19.842130 3.052353 0.160479 2.438129 0.284105 0.256740 4.076561 0.481972 1.363821 17.108454 2.201253 5.660170 17.435993 -1.244371 10.844360 -3.026070 -4.136067 -2.466724 -3.612605 -2.660690 6.339865 -10.420793 -13.992872 -42.961996 -48.240091 96.804458 2.524647 1.032978 -17.957322 -0.548426 -3.548358 3.942180 -9.240394 -6.124269 12.565926 75.992986 -68.524692 -114.521331 3.200151 5.917377 7.540400 -2.151019 -48.552112 -6.923328 -146.876755 81.893003 -134.884163 -29.149636 -2.248393 -2.883492 -0.162412 -11.882879 0.612193 -15.455054 -50.286493 17.740387 -73.522881 68.579237 -77.247449 30.380538 8.511426 12.530144 0.124492 -0.453495 0.036502
-210.076497 48.888537 6.801346 175.969625 -36.432066 -3.801804 1.516474 19.850170 3.057902 0.160716 2.447274 0.287113 0.260323 4.054441 0.478252 1.358022 17.147072 2.213053 5.665624 17.437580 -1.235769 10.846444 -3.020642 -4.122249 -2.473666 -3.616204 -2.667020 6.344685 -10.451144 -14.030613 -42.903203 -48.288055 96.794195 2.525155 1.022328 -18.056074 -0.551470 -3.578836 3.929206 -9.255902 -6.117775 12.587973 75.997686 -68.608429 -114.524438 3.160014 5.893324 7.445910 -2.127357 -48.569045 -6.920285 -146.860862 81.882569 -134.855156 -29.157834 -2.251973 -2.898102 -0.167864 -11.877535 0.635002 -15.492011 -50.297366 17.757817 -73.520248 68.590216 -77.244775 30.390968 8.517506 12.521001 0.106424 -0.462785 0.034023
-210.073804 48.889953 6.802671 175.963104 -36.411359 -3.803819 1.520462 19.836688 3.063545 0.149888 2.497048 0.293276 0.264078 4.036511 0.476495 1.358717 17.155648 2.218491 5.665891 17.441893 -1.226531 10.852123 -2.974741 -4.071083 -2.483859 -3.595108 -2.661585 6.373702 -10.469665 -14.120636 -42.839861 -48.332097 96.797298 2.499332 0.942539 -18.158325 -0.555152 -3.610476 3.915827 -9.319923 -6.071761 12.613583 76.155218 -68.642449 -114.617825 3.130106 5.891774 7.333554 -2.127068 -48.594230 -6.906978 -146.902522 81.884468 -134.892013 -29.167300 -2.254161 -2.916745 -0.160330 -11.875703 0.649072 -15.521983 -50.315220 17.776542 -73.519370 68.600638 -77.238516 30.398651 8.521828 12.508222 0.093036 -0.468506 0.033581
-210.070822 48.891429 6.804281 175.957822 -36.392493 -3.802426 1.521415 19.845876 3.067790 0.144666 2.507783 0.294165 0.259211 4.071615 0.483077 1.360269 17.129437 2.214862 5.673652 17.497221 -1.191557 10.855181 -3.010059 -4.092888 -2.475962 -3.625939 -2.669713 6.387078 -10.466824 -14.144294 -42.789601 -48.315657 96.775400 2.495612 0.917233 -18.240890 -0.602750 -3.604477 3.901907 -9.339247 -6.053364 12.630382 76.206020 -68.682879 -114.632890 3.136550 5.838645 7.272121 -2.127572 -48.616541 -6.898280 -146.942644 81.889629 -134.931877 -29.179736 -2.253876 -2.920908 -0.162922 -11.874515 0.652319 -15.543581 -50.330562 17.788794 -73.516796 68.610011 -77.228639 30.393750 8.521198 12.493557 0.089399 -0.467681 0.032894
-210.066862 48.894142 6.804782 175.955872 -36.385916 -3.802766 1.514633 19.865795 3.068359 0.143323 2.512185 0.294990 0.258783 4.077222 0.484190 1.364357 17.117159 2.213549 5.676953 17.523148 -1.177162 10.857212 -3.040012 -4.113170 -2.470756 -3.633087 -2.671450 6.426105 -10.442792 -14.179442 -42.779957 -48.276297 96.776283 2.480899 0.892727 -18.314962 -0.626099 -3.600524 3.894159 -9.371097 -6.021099 12.630602 76.200605 -68.681803 -114.612233 3.131659 5.795365 7.237271 -2.132319 -48.626006 -6.889577 -146.939259 81.887970 -134.929074 -29.183271 -2.249923 -2.925737 -0.167390 -11.878942 0.656081 -15.558332 -50.335629 17.795999 -73.521301 68.617433 -77.224267 30.385788 8.527541 12.478699 0.090765 -0.476623 0.035966
-210.063823 48.896493 6.806093 175.947660 -36.375845 -3.789321 1.509680 19.884031 3.058602 0.146013 2.499158 0.294067 0.258591 4.079894 0.484602 1.363415 17.123046 2.214753 5.681306 17.535774 -1.169573 10.869343 -3.020343 -4.096150 -2.464248 -3.625659 -2.670375 6.477837 -10.427379 -14.215389 -42.775617 -48.223703 96.774822 2.454334 0.865407 -18.386153 -0.633545 -3.609441 3.887539 -9.413857 -5.975746 12.625149 76.296109 -68.687172 -114.667729 3.162192 5.786585 7.211493 -2.131950 -48.643046 -6.889147 -146.941357 81.884324 -134.940552 -29.170080 -2.242054 -2.940330 -0.157504 -11.886579 0.663718 -15.566485 -50.340901 17.784488 -73.499717 68.634878 -77.198725 30.396633 8.522074 12.474680 0.075782 -0.473686 0.027830
-210.058487 48.898303 6.809119 175.923092 -36.357991 -3.776717 1.514512 19.890995 3.057482 0.153384 2.488177 0.293169 0.258605 4.082487 0.484858 1.357004 17.149338 2.219121 5.694992 17.538375 -1.167058 10.903004 -2.967247 -4.054806 -2.447415 -3.637299 -2.674266 6.527159 -10.410005 -14.239207 -42.761226 -48.171286 96.764574 2.419117 0.828625 -18.462312 -0.634749 -3.636470 3.875755 -9.449502 -5.930720 12.620983 76.285019 -68.642549 -114.651781 3.106849 5.758544 7.234541 -2.133353 -48.669702 -6.867228 -146.920950 81.878715 -134.929480 -29.167240 -2.238703 -2.942561 -0.151566 -11.889311 0.660321 -15.560309 -50.356056 17.792637 -73.503233 68.640637 -77.188820 30.390812 8.519718 12.459760 0.078336 -0.471580 0.028979
-210.050702 48.901239 6.811497 175.906569 -36.347789 -3.780546 1.523711 19.908260 3.070800 0.153503 2.491136 0.293300 0.251255 4.118578 0.487963 1.363684 17.126414 2.215352 5.708200 17.548746 -1.158609 10.922280 -2.973579 -4.054603 -2.435331 -3.649155 -2.678541 6.620688 -10.350225 -14.264686 -42.875142 -48.178967 96.809827 2.340694 0.808444 -18.530062 -0.660642 -3.644423 3.867690 -9.437147 -5.933490 12.626016 76.202963 -68.588994 -114.585946 3.054695 5.735856 7.254523 -2.165034 -48.685127 -6.816950 -146.898963 81.879145 -134.922156 -29.158513 -2.232017 -2.959029 -0.169647 -11.895422 0.671857 -15.570583 -50.359942 17.814905 -73.509757 68.646614 -77.183870 30.391800 8.509136 12.453331 0.073519 -0.463589 0.022651
-210.045829 48.905039 6.812471 175.890605 -36.345914 -3.765490 1.528104 19.929362 3.064604 0.153576 2.494234 0.293820 0.248860 4.124096 0.484561 1.360214 17.165743 2.218462 5.725355 17.520655 -1.161832 10.947613 -2.970919 -4.047125 -2.422868 -3.691290 -2.685267 6.654811 -10.346689 -14.275150 -42.820762 -48.099845 96.789649 2.329208 0.741198 -18.626757 -0.724558 -3.643975 3.856529 -9.377709 -5.968089 12.643224 76.224611 -68.575236 -114.597718 3.098818 5.759303 7.275843 -2.159573 -48.688444 -6.809462 -146.899834 81.890401 -134.917525 -29.223227 -2.241794 -2.953470 -0.130361 -11.890525 0.657038 -15.571266 -50.353745 17.809817 -73.489459 68.655613 -77.163793 30.403351 8.497924 12.448257 0.060635 -0.456703 0.017489
-210.040055 48.907760 6.815366 175.866973 -36.330571 -3.752549 1.528547 19.955786 3.055728 0.151306 2.507010 0.292120 0.265651 4.085425 0.487214 1.353043 17.200493 2.212379 5.742133 17.491033 -1.159133 10.978228 -2.951206 -4.029833 -2.410815 -3.712580 -2.686547 6.664961 -10.365494 -14.275480 -42.741466 -48.016866 96.757029 2.322810 0.673241 -18.717635 -0.742505 -3.659247 3.860402 -9.372407 -5.941811 12.641049 76.332979 -68.578111 -114.684809 3.090261 5.764354 7.286590 -2.156622 -48.705222 -6.792848 -146.910089 81.901838 -134.920663 -29.272080 -2.255626 -2.955653 -0.162510 -11.880972 0.659414 -15.575266 -50.363865 17.818544 -73.481725 68.659631 -77.151937 30.418599 8.493458 12.447166 0.050479 -0.456830 0.009870
